<svg xmlns="http://www.w3.org/2000/svg" viewBox="0 0 47.5 47.5" id="barber"><defs><clipPath id="a"><path d="M1 1h36v36H1V1Z"></path></clipPath><clipPath id="b"><path d="M0 38h38V0H0v38Z"></path></clipPath></defs><g clip-path="url(#a)" transform="matrix(1.25 0 0 -1.25 0 47.5)"><path fill="#9aaab4" d="M31.169 28.85 16.32 14s-.707 2.121.707 3.536l12.728 12.728 1.414-1.414Z"></path><path fill="#67757f" d="M31.169 28.85c1.172 1.172 2.438 1.805 2.829 1.414.392-.391-.243-1.656-1.415-2.828-1.171-1.172-2.436-1.805-2.828-1.414-.391.39.243 1.656 1.414 2.828m-1.414 1.414c-1.952-1.953-2.586-4.484-1.414-5.656 1.172-1.172 3.705-.539 5.657 1.414 1.952 1.952 2.586 4.484 1.414 5.656-1.172 1.172-3.704.539-5.657-1.414"></path><path fill="#642116" d="M21 26c0 6.075-4.925 11-11 11-1.721 0-3.343-.406-4.793-1.111A6.964 6.964 0 0 1 4 36a7 7 0 0 1-7-7V17h.018C-2.799 10.533 2.489 5.344 9 5.344c3.358 0 6.384 1.387 8.559 3.612C23.426 8.493 30 1 30 1l7 9c-15 6-16 16-16 16"></path><path fill="#9268ca" d="M18 10H0a4 4 0 0 1-4-4V1h26v5a4 4 0 0 1-4 4"></path><path fill="#7450a8" d="M18 1h-1v4h1V1zM1 1H0v4h1V1z"></path><path fill="#d79e84" d="M12 9.005V13H6V9a3 3 0 0 1 6 0v.005"></path><path fill="#d79e84" d="M5 32s-.003-5.308-5-5.936V20a9 9 0 0 1 9-9 9 9 0 0 1 9 9v5.019C6.89 25.395 5 32 5 32"></path><path fill="#bb1a34" d="M13 16H5s1-2 4-2 4 2 4 2"></path><path fill="#9aaab4" d="M25 31V10s2 1 2 3v18h-2Z"></path><path fill="#67757f" d="M24 28c-.553 0-1 1.343-1 3s.447 3 1 3c.553 0 1-1.343 1-3s-.447-3-1-3m0 8c-1.657 0-3-2.239-3-5s1.343-5 3-5 3 2.239 3 5-1.343 5-3 5"></path></g><g clip-path="url(#b)" transform="matrix(1.25 0 0 -1.25 0 47.5)"><path fill="#67757f" d="M27 25a1 1 0 1 0-2 0 1 1 0 0 0 2 0"></path><path fill="#bf6952" d="M10 17.5H8a.5.5 0 0 0 0 1h2a.5.5 0 0 0 0-1"></path><path fill="#292f33" d="M5 21a1 1 0 0 0-1 1v1a1 1 0 0 0 2 0v-1a1 1 0 0 0-1-1M13 21a1 1 0 0 0-1 1v1a1 1 0 0 0 2 0v-1a1 1 0 0 0-1-1"></path></g></svg>